<svg xmlns="http://www.w3.org/2000/svg" viewBox="0 0 32 32" width="32" height="32">
  <defs>
    <style>
      .brain { fill: #000050; }
      .highlight { fill: #0066cc; }
    </style>
  </defs>
  <!-- Brain outline -->
  <path class="brain" d="M16 4c-7.4 0-13.5 6.1-13.5 13.5 0 4.2 1.9 8 5 10.5 1.1.9 2.4 1.5 3.8 1.8.5.1 1 .2 1.5.2h7.4c.5 0 1-.1 1.5-.2 1.4-.3 2.7-.9 3.8-1.8 3.1-2.5 5-6.3 5-10.5C29.5 10.1 23.4 4 16 4z"/>
  <!-- Neural connections -->
  <circle class="highlight" cx="12" cy="14" r="1.5"/>
  <circle class="highlight" cx="20" cy="14" r="1.5"/>
  <circle class="highlight" cx="16" cy="18" r="1.5"/>
  <circle class="highlight" cx="14" cy="22" r="1"/>
  <circle class="highlight" cx="18" cy="22" r="1"/>
  <!-- Connection lines -->
  <line stroke="#0066cc" stroke-width="1" x1="12" y1="14" x2="16" y2="18"/>
  <line stroke="#0066cc" stroke-width="1" x1="20" y1="14" x2="16" y2="18"/>
  <line stroke="#0066cc" stroke-width="1" x1="16" y1="18" x2="14" y2="22"/>
  <line stroke="#0066cc" stroke-width="1" x1="16" y1="18" x2="18" y2="22"/>
</svg>